<svg xmlns:xlink="http://www.w3.org/1999/xlink" role="img" viewBox="0 0 24 24" xmlns="http://www.w3.org/2000/svg" class="size-8" fill="currentColor" width="32"  height="32" ><title>Tailwind CSS</title><path d="m12.001 4.8c-3.2 0-5.2 1.6-6 4.8 1.2-1.6 2.6-2.2 4.2-1.8.913.228 1.565.89 2.288 1.624 1.177 1.194 2.538 2.576 5.512 2.576 3.2 0 5.2-1.6 6-4.8-1.2 1.6-2.6 2.2-4.2 1.8-.913-.228-1.565-.89-2.288-1.624-1.176-1.194-2.537-2.576-5.512-2.576zm-6 7.2c-3.2 0-5.2 1.6-6 4.8 1.2-1.6 2.6-2.2 4.2-1.8.913.228 1.565.89 2.288 1.624 1.177 1.194 2.538 2.576 5.512 2.576 3.2 0 5.2-1.6 6-4.8-1.2 1.6-2.6 2.2-4.2 1.8-.913-.228-1.565-.89-2.288-1.624-1.176-1.194-2.537-2.576-5.512-2.576z" fill="#0A0A0A"></path></svg>